<svg width="1068" height="694" viewBox="0 0 1068 694" fill="none" xmlns="http://www.w3.org/2000/svg">
<g clip-path="url(#clip0)">
<rect width="1068" height="694" fill="white"/>
<line x1="928.5" y1="269" x2="928.5" y2="572" stroke="#5452F6" stroke-width="2"/>
<path d="M938 562L928.5 572.5L919.5 562" stroke="#5452F6" stroke-width="2" stroke-linecap="round" stroke-linejoin="round"/>
<circle cx="928" cy="264.5" r="5.5" transform="rotate(90 928 264.5)" stroke="#5452F6" stroke-width="2"/>
<rect x="112.5" y="30.5" width="207" height="78" rx="7.5" fill="#FFECEA"/>
<path d="M158.996 78H170.041V75.733H161.629V70.3892H169.368V68.1307H161.629V62.8125H169.939V60.5455H158.996V78ZM175.8 70.2273C175.8 68.1392 177.079 66.946 178.852 66.946C180.582 66.946 181.63 68.0795 181.63 69.9801V78H184.178V69.6733C184.178 66.4347 182.397 64.7386 179.721 64.7386C177.752 64.7386 176.465 65.6506 175.86 67.0398H175.698V64.9091H173.252V78H175.8V70.2273ZM193.707 64.9091H191.022V61.7727H188.474V64.9091H186.556V66.9545H188.474V74.6847C188.465 77.0625 190.281 78.2131 192.292 78.1705C193.102 78.1619 193.647 78.0085 193.945 77.8977L193.485 75.7926C193.315 75.8267 192.999 75.9034 192.59 75.9034C191.763 75.9034 191.022 75.6307 191.022 74.1562V66.9545H193.707V64.9091ZM202.027 78.2642C204.882 78.2642 206.902 76.858 207.482 74.7273L205.07 74.2926C204.609 75.5284 203.501 76.1591 202.053 76.1591C199.871 76.1591 198.405 74.7443 198.337 72.2216H207.643V71.3182C207.643 66.5881 204.814 64.7386 201.848 64.7386C198.2 64.7386 195.797 67.517 195.797 71.5398C195.797 75.6051 198.166 78.2642 202.027 78.2642ZM198.345 70.3125C198.447 68.4545 199.794 66.8438 201.865 66.8438C203.842 66.8438 205.138 68.3097 205.146 70.3125H198.345ZM210.471 78H213.019V70.0057C213.019 68.2926 214.34 67.0568 216.147 67.0568C216.675 67.0568 217.272 67.1506 217.477 67.2102V64.7727C217.221 64.7386 216.718 64.7131 216.394 64.7131C214.86 64.7131 213.548 65.5824 213.07 66.9886H212.934V64.9091H210.471V78ZM219.682 82.9091H222.23V75.9631H222.384C222.844 76.7983 223.781 78.2557 226.168 78.2557C229.338 78.2557 231.639 75.7159 231.639 71.4801C231.639 67.2358 229.304 64.7386 226.142 64.7386C223.713 64.7386 222.835 66.2216 222.384 67.0312H222.17V64.9091H219.682V82.9091ZM222.179 71.4545C222.179 68.7188 223.372 66.9034 225.597 66.9034C227.906 66.9034 229.065 68.8551 229.065 71.4545C229.065 74.0795 227.872 76.0824 225.597 76.0824C223.406 76.0824 222.179 74.2074 222.179 71.4545ZM234.494 78H237.043V70.0057C237.043 68.2926 238.364 67.0568 240.17 67.0568C240.699 67.0568 241.295 67.1506 241.5 67.2102V64.7727C241.244 64.7386 240.741 64.7131 240.418 64.7131C238.884 64.7131 237.571 65.5824 237.094 66.9886H236.957V64.9091H234.494V78ZM243.705 78H246.254V64.9091H243.705V78ZM244.992 62.8892C245.87 62.8892 246.603 62.2074 246.603 61.3722C246.603 60.5369 245.87 59.8466 244.992 59.8466C244.106 59.8466 243.381 60.5369 243.381 61.3722C243.381 62.2074 244.106 62.8892 244.992 62.8892ZM259.491 68.1051C258.963 66.0682 257.369 64.7386 254.54 64.7386C251.582 64.7386 249.486 66.2983 249.486 68.6165C249.486 70.4744 250.611 71.7102 253.065 72.2557L255.281 72.7415C256.543 73.0227 257.131 73.5852 257.131 74.4034C257.131 75.4176 256.048 76.2102 254.378 76.2102C252.852 76.2102 251.872 75.554 251.565 74.267L249.102 74.642C249.528 76.9602 251.455 78.2642 254.395 78.2642C257.557 78.2642 259.747 76.5852 259.747 74.2159C259.747 72.3665 258.571 71.2244 256.168 70.6705L254.088 70.1932C252.648 69.8523 252.026 69.3665 252.034 68.4801C252.026 67.4744 253.116 66.7585 254.565 66.7585C256.151 66.7585 256.884 67.6364 257.182 68.5142L259.491 68.1051ZM268.191 78.2642C271.046 78.2642 273.066 76.858 273.646 74.7273L271.234 74.2926C270.773 75.5284 269.665 76.1591 268.217 76.1591C266.035 76.1591 264.569 74.7443 264.501 72.2216H273.808V71.3182C273.808 66.5881 270.978 64.7386 268.012 64.7386C264.364 64.7386 261.961 67.517 261.961 71.5398C261.961 75.6051 264.33 78.2642 268.191 78.2642ZM264.509 70.3125C264.612 68.4545 265.958 66.8438 268.029 66.8438C270.006 66.8438 271.302 68.3097 271.31 70.3125H264.509Z" fill="#FF5A43"/>
<rect x="112.5" y="30.5" width="207" height="78" rx="7.5" stroke="#FF5A43"/>
<rect x="112.5" y="196.5" width="246" height="78" rx="7.5" fill="#FFECEA"/>
<path d="M159.277 244H165.967C170.024 244 171.857 241.98 171.857 239.304C171.857 236.602 169.964 235.077 168.234 234.983V234.812C169.837 234.403 171.175 233.312 171.175 231.131C171.175 228.548 169.385 226.545 165.669 226.545H159.277V244ZM161.911 241.741V236.151H165.805C167.919 236.151 169.24 237.514 169.24 239.176C169.24 240.642 168.243 241.741 165.712 241.741H161.911ZM161.911 234.097V228.787H165.507C167.595 228.787 168.592 229.886 168.592 231.335C168.592 233.023 167.212 234.097 165.439 234.097H161.911ZM183.068 238.571C183.077 240.795 181.423 241.852 179.991 241.852C178.415 241.852 177.324 240.71 177.324 238.929V230.909H174.776V239.236C174.776 242.483 176.557 244.17 179.071 244.17C181.04 244.17 182.378 243.131 182.983 241.733H183.119V244H185.625V230.909H183.068V238.571ZM198.859 234.105C198.33 232.068 196.737 230.739 193.907 230.739C190.95 230.739 188.853 232.298 188.853 234.616C188.853 236.474 189.978 237.71 192.433 238.256L194.648 238.741C195.91 239.023 196.498 239.585 196.498 240.403C196.498 241.418 195.415 242.21 193.745 242.21C192.219 242.21 191.239 241.554 190.933 240.267L188.469 240.642C188.896 242.96 190.822 244.264 193.762 244.264C196.924 244.264 199.114 242.585 199.114 240.216C199.114 238.366 197.938 237.224 195.535 236.67L193.455 236.193C192.015 235.852 191.393 235.366 191.401 234.48C191.393 233.474 192.484 232.759 193.933 232.759C195.518 232.759 196.251 233.636 196.549 234.514L198.859 234.105ZM201.916 244H204.464V230.909H201.916V244ZM203.203 228.889C204.081 228.889 204.814 228.207 204.814 227.372C204.814 226.537 204.081 225.847 203.203 225.847C202.317 225.847 201.592 226.537 201.592 227.372C201.592 228.207 202.317 228.889 203.203 228.889ZM210.441 236.227C210.441 234.139 211.719 232.946 213.492 232.946C215.222 232.946 216.271 234.08 216.271 235.98V244H218.819V235.673C218.819 232.435 217.038 230.739 214.362 230.739C212.393 230.739 211.106 231.651 210.501 233.04H210.339V230.909H207.893V244H210.441V236.227ZM227.879 244.264C230.734 244.264 232.754 242.858 233.333 240.727L230.921 240.293C230.461 241.528 229.353 242.159 227.904 242.159C225.722 242.159 224.256 240.744 224.188 238.222H233.495V237.318C233.495 232.588 230.665 230.739 227.7 230.739C224.052 230.739 221.648 233.517 221.648 237.54C221.648 241.605 224.018 244.264 227.879 244.264ZM224.197 236.312C224.299 234.455 225.646 232.844 227.717 232.844C229.694 232.844 230.989 234.31 230.998 236.312H224.197ZM246.132 234.105C245.604 232.068 244.01 230.739 241.18 230.739C238.223 230.739 236.126 232.298 236.126 234.616C236.126 236.474 237.251 237.71 239.706 238.256L241.922 238.741C243.183 239.023 243.771 239.585 243.771 240.403C243.771 241.418 242.689 242.21 241.018 242.21C239.493 242.21 238.513 241.554 238.206 240.267L235.743 240.642C236.169 242.96 238.095 244.264 241.036 244.264C244.197 244.264 246.388 242.585 246.388 240.216C246.388 238.366 245.212 237.224 242.808 236.67L240.729 236.193C239.288 235.852 238.666 235.366 238.675 234.48C238.666 233.474 239.757 232.759 241.206 232.759C242.791 232.759 243.524 233.636 243.822 234.514L246.132 234.105ZM258.999 234.105C258.471 232.068 256.877 230.739 254.048 230.739C251.09 230.739 248.994 232.298 248.994 234.616C248.994 236.474 250.119 237.71 252.573 238.256L254.789 238.741C256.05 239.023 256.638 239.585 256.638 240.403C256.638 241.418 255.556 242.21 253.886 242.21C252.36 242.21 251.38 241.554 251.073 240.267L248.61 240.642C249.036 242.96 250.962 244.264 253.903 244.264C257.065 244.264 259.255 242.585 259.255 240.216C259.255 238.366 258.079 237.224 255.675 236.67L253.596 236.193C252.156 235.852 251.533 235.366 251.542 234.48C251.533 233.474 252.624 232.759 254.073 232.759C255.658 232.759 256.391 233.636 256.69 234.514L258.999 234.105ZM279.837 226.545V237.812C279.837 240.182 278.201 241.886 275.542 241.886C272.891 241.886 271.246 240.182 271.246 237.812V226.545H268.613V238.026C268.613 241.69 271.357 244.29 275.542 244.29C279.727 244.29 282.479 241.69 282.479 238.026V226.545H279.837ZM288.652 236.227C288.652 234.139 289.93 232.946 291.703 232.946C293.433 232.946 294.482 234.08 294.482 235.98V244H297.03V235.673C297.03 232.435 295.249 230.739 292.572 230.739C290.604 230.739 289.317 231.651 288.712 233.04H288.55V230.909H286.104V244H288.652V236.227ZM300.447 244H302.996V230.909H300.447V244ZM301.734 228.889C302.612 228.889 303.345 228.207 303.345 227.372C303.345 226.537 302.612 225.847 301.734 225.847C300.848 225.847 300.124 226.537 300.124 227.372C300.124 228.207 300.848 228.889 301.734 228.889ZM312.535 230.909H309.85V227.773H307.302V230.909H305.384V232.955H307.302V240.685C307.293 243.062 309.109 244.213 311.12 244.17C311.93 244.162 312.475 244.009 312.773 243.898L312.313 241.793C312.143 241.827 311.827 241.903 311.418 241.903C310.592 241.903 309.85 241.631 309.85 240.156V232.955H312.535V230.909Z" fill="#FF5A43"/>
<rect x="112.5" y="196.5" width="246" height="78" rx="7.5" stroke="#FF5A43"/>
<rect x="112.5" y="314.5" width="243" height="78" rx="7.5" fill="#FFECEA"/>
<path d="M168.844 349.131H171.384C171.307 346.335 168.835 344.307 165.29 344.307C161.787 344.307 159.102 346.31 159.102 349.318C159.102 351.747 160.841 353.17 163.645 353.929L165.707 354.491C167.574 354.986 169.014 355.599 169.014 357.151C169.014 358.855 167.386 359.98 165.145 359.98C163.116 359.98 161.429 359.077 161.276 357.176H158.634C158.804 360.338 161.25 362.29 165.162 362.29C169.261 362.29 171.622 360.134 171.622 357.176C171.622 354.031 168.818 352.812 166.602 352.267L164.898 351.824C163.534 351.474 161.719 350.835 161.727 349.165C161.727 347.682 163.082 346.582 165.23 346.582C167.233 346.582 168.656 347.52 168.844 349.131ZM180.207 362.264C183.062 362.264 185.082 360.858 185.661 358.727L183.249 358.293C182.789 359.528 181.681 360.159 180.232 360.159C178.05 360.159 176.585 358.744 176.516 356.222H185.823V355.318C185.823 350.588 182.994 348.739 180.028 348.739C176.38 348.739 173.977 351.517 173.977 355.54C173.977 359.605 176.346 362.264 180.207 362.264ZM176.525 354.312C176.627 352.455 177.974 350.844 180.045 350.844C182.022 350.844 183.317 352.31 183.326 354.312H176.525ZM188.651 362H191.199V354.006C191.199 352.293 192.52 351.057 194.327 351.057C194.855 351.057 195.452 351.151 195.656 351.21V348.773C195.401 348.739 194.898 348.713 194.574 348.713C193.04 348.713 191.727 349.582 191.25 350.989H191.114V348.909H188.651V362ZM209.459 348.909H206.723L203.416 358.983H203.28L199.964 348.909H197.229L201.984 362H204.712L209.459 348.909ZM211.854 362H214.402V348.909H211.854V362ZM213.141 346.889C214.018 346.889 214.751 346.207 214.751 345.372C214.751 344.537 214.018 343.847 213.141 343.847C212.254 343.847 211.53 344.537 211.53 345.372C211.53 346.207 212.254 346.889 213.141 346.889ZM223.344 362.264C226.438 362.264 228.441 360.406 228.722 357.858H226.242C225.918 359.273 224.819 360.108 223.362 360.108C221.205 360.108 219.816 358.31 219.816 355.455C219.816 352.651 221.231 350.886 223.362 350.886C224.981 350.886 225.969 351.909 226.242 353.136H228.722C228.45 350.494 226.293 348.739 223.319 348.739C219.629 348.739 217.242 351.517 217.242 355.514C217.242 359.46 219.543 362.264 223.344 362.264ZM237.089 362.264C239.945 362.264 241.964 360.858 242.544 358.727L240.132 358.293C239.672 359.528 238.564 360.159 237.115 360.159C234.933 360.159 233.467 358.744 233.399 356.222H242.706V355.318C242.706 350.588 239.876 348.739 236.911 348.739C233.263 348.739 230.859 351.517 230.859 355.54C230.859 359.605 233.229 362.264 237.089 362.264ZM233.408 354.312C233.51 352.455 234.857 350.844 236.928 350.844C238.905 350.844 240.2 352.31 240.209 354.312H233.408ZM252.089 362H262.632V359.733H254.723V344.545H252.089V362ZM271.074 362.264C273.929 362.264 275.949 360.858 276.528 358.727L274.116 358.293C273.656 359.528 272.548 360.159 271.099 360.159C268.918 360.159 267.452 358.744 267.384 356.222H276.69V355.318C276.69 350.588 273.861 348.739 270.895 348.739C267.247 348.739 264.844 351.517 264.844 355.54C264.844 359.605 267.213 362.264 271.074 362.264ZM267.392 354.312C267.494 352.455 268.841 350.844 270.912 350.844C272.889 350.844 274.185 352.31 274.193 354.312H267.392ZM290.318 348.909H287.582L284.276 358.983H284.139L280.824 348.909H278.088L282.844 362H285.571L290.318 348.909ZM297.886 362.264C300.741 362.264 302.761 360.858 303.341 358.727L300.929 358.293C300.469 359.528 299.361 360.159 297.912 360.159C295.73 360.159 294.264 358.744 294.196 356.222H303.503V355.318C303.503 350.588 300.673 348.739 297.707 348.739C294.06 348.739 291.656 351.517 291.656 355.54C291.656 359.605 294.026 362.264 297.886 362.264ZM294.205 354.312C294.307 352.455 295.653 350.844 297.724 350.844C299.702 350.844 300.997 352.31 301.006 354.312H294.205ZM308.879 344.545H306.33V362H308.879V344.545Z" fill="#FF5A43"/>
<rect x="112.5" y="314.5" width="243" height="78" rx="7.5" stroke="#FF5A43"/>
<rect x="457.5" y="202.5" width="244" height="78" rx="7.5" fill="#FFECEA"/>
<path d="M504.402 250H507.036V243.864H510.615C514.663 243.864 516.666 241.418 516.666 238.196C516.666 234.983 514.68 232.545 510.624 232.545H504.402V250ZM507.036 241.631V234.804H510.342C512.95 234.804 514.016 236.219 514.016 238.196C514.016 240.173 512.95 241.631 510.376 241.631H507.036ZM519.754 250H522.387V243.864H525.967C530.015 243.864 532.018 241.418 532.018 238.196C532.018 234.983 530.032 232.545 525.975 232.545H519.754V250ZM522.387 241.631V234.804H525.694C528.302 234.804 529.367 236.219 529.367 238.196C529.367 240.173 528.302 241.631 525.728 241.631H522.387ZM546.918 238.06H549.619C549.031 234.659 546.125 232.307 542.358 232.307C537.841 232.307 534.543 235.707 534.543 241.281C534.543 246.804 537.747 250.239 542.477 250.239C546.713 250.239 549.739 247.46 549.739 243.054V241.068H542.878V243.241H547.19C547.131 246.054 545.273 247.835 542.477 247.835C539.401 247.835 537.159 245.509 537.159 241.264C537.159 237.037 539.418 234.71 542.375 234.71C544.693 234.71 546.261 235.989 546.918 238.06ZM559.433 250H569.976V247.733H562.067V232.545H559.433V250ZM578.29 250.264C581.98 250.264 584.392 247.562 584.392 243.514C584.392 239.44 581.98 236.739 578.29 236.739C574.599 236.739 572.188 239.44 572.188 243.514C572.188 247.562 574.599 250.264 578.29 250.264ZM578.298 248.125C575.886 248.125 574.761 246.02 574.761 243.506C574.761 241 575.886 238.869 578.298 238.869C580.693 238.869 581.818 241 581.818 243.506C581.818 246.02 580.693 248.125 578.298 248.125ZM592.751 250.264C595.844 250.264 597.847 248.406 598.129 245.858H595.648C595.325 247.273 594.225 248.108 592.768 248.108C590.612 248.108 589.222 246.31 589.222 243.455C589.222 240.651 590.637 238.886 592.768 238.886C594.387 238.886 595.376 239.909 595.648 241.136H598.129C597.856 238.494 595.7 236.739 592.725 236.739C589.035 236.739 586.648 239.517 586.648 243.514C586.648 247.46 588.95 250.264 592.751 250.264ZM604.663 250.29C606.828 250.29 608.047 249.19 608.533 248.21H608.635V250H611.124V241.307C611.124 237.497 608.124 236.739 606.044 236.739C603.675 236.739 601.493 237.693 600.641 240.08L603.036 240.625C603.411 239.696 604.365 238.801 606.078 238.801C607.723 238.801 608.567 239.662 608.567 241.145V241.205C608.567 242.134 607.612 242.116 605.26 242.389C602.78 242.679 600.24 243.327 600.24 246.301C600.24 248.875 602.175 250.29 604.663 250.29ZM605.217 248.244C603.777 248.244 602.737 247.597 602.737 246.335C602.737 244.972 603.947 244.486 605.422 244.29C606.249 244.179 608.209 243.957 608.575 243.591V245.278C608.575 246.83 607.339 248.244 605.217 248.244ZM620.629 236.909H617.944V233.773H615.396V236.909H613.478V238.955H615.396V246.685C615.387 249.062 617.202 250.213 619.214 250.17C620.023 250.162 620.569 250.009 620.867 249.898L620.407 247.793C620.237 247.827 619.921 247.903 619.512 247.903C618.685 247.903 617.944 247.631 617.944 246.156V238.955H620.629V236.909ZM623.447 250H625.996V236.909H623.447V250ZM624.734 234.889C625.612 234.889 626.345 234.207 626.345 233.372C626.345 232.537 625.612 231.847 624.734 231.847C623.848 231.847 623.124 232.537 623.124 233.372C623.124 234.207 623.848 234.889 624.734 234.889ZM634.938 250.264C638.629 250.264 641.04 247.562 641.04 243.514C641.04 239.44 638.629 236.739 634.938 236.739C631.248 236.739 628.836 239.44 628.836 243.514C628.836 247.562 631.248 250.264 634.938 250.264ZM634.947 248.125C632.535 248.125 631.41 246.02 631.41 243.506C631.41 241 632.535 238.869 634.947 238.869C637.342 238.869 638.467 241 638.467 243.506C638.467 246.02 637.342 248.125 634.947 248.125ZM646.433 242.227C646.433 240.139 647.712 238.946 649.484 238.946C651.214 238.946 652.263 240.08 652.263 241.98V250H654.811V241.673C654.811 238.435 653.03 236.739 650.354 236.739C648.385 236.739 647.098 237.651 646.493 239.04H646.331V236.909H643.885V250H646.433V242.227Z" fill="#FF5A43"/>
<rect x="457.5" y="202.5" width="244" height="78" rx="7.5" stroke="#FF5A43"/>
<rect x="843.5" y="202.5" width="171" height="78" rx="7.5" fill="#EEEEFF"/>
<path d="M890.031 250H892.664V242.389H900.079V240.131H892.664V234.812H900.855V232.545H890.031V250ZM907.652 250.29C909.816 250.29 911.035 249.19 911.521 248.21H911.623V250H914.112V241.307C914.112 237.497 911.112 236.739 909.032 236.739C906.663 236.739 904.481 237.693 903.629 240.08L906.024 240.625C906.399 239.696 907.353 238.801 909.066 238.801C910.711 238.801 911.555 239.662 911.555 241.145V241.205C911.555 242.134 910.6 242.116 908.248 242.389C905.768 242.679 903.228 243.327 903.228 246.301C903.228 248.875 905.163 250.29 907.652 250.29ZM908.206 248.244C906.765 248.244 905.725 247.597 905.725 246.335C905.725 244.972 906.936 244.486 908.41 244.29C909.237 244.179 911.197 243.957 911.564 243.591V245.278C911.564 246.83 910.328 248.244 908.206 248.244ZM923.02 250.264C926.114 250.264 928.117 248.406 928.398 245.858H925.918C925.594 247.273 924.495 248.108 923.037 248.108C920.881 248.108 919.492 246.31 919.492 243.455C919.492 240.651 920.907 238.886 923.037 238.886C924.657 238.886 925.645 239.909 925.918 241.136H928.398C928.125 238.494 925.969 236.739 922.995 236.739C919.304 236.739 916.918 239.517 916.918 243.514C916.918 247.46 919.219 250.264 923.02 250.264ZM931.123 250H933.672V236.909H931.123V250ZM932.41 234.889C933.288 234.889 934.021 234.207 934.021 233.372C934.021 232.537 933.288 231.847 932.41 231.847C931.524 231.847 930.799 232.537 930.799 233.372C930.799 234.207 931.524 234.889 932.41 234.889ZM939.648 232.545H937.1V250H939.648V232.545ZM943.076 250H945.625V236.909H943.076V250ZM944.363 234.889C945.241 234.889 945.974 234.207 945.974 233.372C945.974 232.537 945.241 231.847 944.363 231.847C943.477 231.847 942.752 232.537 942.752 233.372C942.752 234.207 943.477 234.889 944.363 234.889ZM955.164 236.909H952.479V233.773H949.931V236.909H948.013V238.955H949.931V246.685C949.922 249.062 951.738 250.213 953.749 250.17C954.559 250.162 955.104 250.009 955.402 249.898L954.942 247.793C954.772 247.827 954.456 247.903 954.047 247.903C953.221 247.903 952.479 247.631 952.479 246.156V238.955H955.164V236.909ZM959.593 254.909C961.699 254.909 963.028 253.81 963.787 251.747L969.199 236.935L966.446 236.909L963.13 247.068H962.994L959.679 236.909H956.951L961.741 250.17L961.426 251.04C960.778 252.778 959.866 252.923 958.468 252.54L957.855 254.628C958.162 254.764 958.826 254.909 959.593 254.909Z" fill="#5452F6"/>
<rect x="843.5" y="202.5" width="171" height="78" rx="7.5" stroke="#5452F6"/>
<rect x="837.5" y="324.5" width="182" height="78" rx="7.5" fill="#EEEEFF"/>
<path d="M884.375 372H891.065C895.122 372 896.954 369.98 896.954 367.304C896.954 364.602 895.062 363.077 893.332 362.983V362.812C894.934 362.403 896.272 361.312 896.272 359.131C896.272 356.548 894.483 354.545 890.767 354.545H884.375V372ZM887.008 369.741V364.151H890.903C893.017 364.151 894.338 365.514 894.338 367.176C894.338 368.642 893.341 369.741 890.809 369.741H887.008ZM887.008 362.097V356.787H890.605C892.693 356.787 893.69 357.886 893.69 359.335C893.69 361.023 892.309 362.097 890.537 362.097H887.008ZM908.166 366.571C908.174 368.795 906.521 369.852 905.089 369.852C903.512 369.852 902.422 368.71 902.422 366.929V358.909H899.873V367.236C899.873 370.483 901.654 372.17 904.169 372.17C906.137 372.17 907.475 371.131 908.081 369.733H908.217V372H910.723V358.909H908.166V366.571ZM914.147 372H916.695V358.909H914.147V372ZM915.434 356.889C916.311 356.889 917.044 356.207 917.044 355.372C917.044 354.537 916.311 353.847 915.434 353.847C914.547 353.847 913.823 354.537 913.823 355.372C913.823 356.207 914.547 356.889 915.434 356.889ZM922.672 354.545H920.123V372H922.672V354.545ZM931 372.256C933.387 372.256 934.324 370.798 934.784 369.963H934.998V372H937.486V354.545H934.938V361.031H934.784C934.324 360.222 933.455 358.739 931.017 358.739C927.855 358.739 925.529 361.236 925.529 365.48C925.529 369.716 927.821 372.256 931 372.256ZM931.563 370.082C929.287 370.082 928.103 368.08 928.103 365.455C928.103 362.855 929.262 360.903 931.563 360.903C933.787 360.903 934.98 362.719 934.98 365.455C934.98 368.207 933.762 370.082 931.563 370.082ZM941.123 372H943.672V358.909H941.123V372ZM942.41 356.889C943.288 356.889 944.021 356.207 944.021 355.372C944.021 354.537 943.288 353.847 942.41 353.847C941.524 353.847 940.799 354.537 940.799 355.372C940.799 356.207 941.524 356.889 942.41 356.889ZM949.648 364.227C949.648 362.139 950.926 360.946 952.699 360.946C954.429 360.946 955.478 362.08 955.478 363.98V372H958.026V363.673C958.026 360.435 956.245 358.739 953.569 358.739C951.6 358.739 950.313 359.651 949.708 361.04H949.546V358.909H947.1V372H949.648V364.227ZM966.932 377.182C970.265 377.182 972.838 375.656 972.838 372.29V358.909H970.341V361.031H970.154C969.702 360.222 968.799 358.739 966.361 358.739C963.199 358.739 960.873 361.236 960.873 365.403C960.873 369.58 963.25 371.804 966.344 371.804C968.748 371.804 969.676 370.449 970.137 369.614H970.299V372.188C970.299 374.241 968.892 375.128 966.958 375.128C964.836 375.128 964.009 374.062 963.557 373.312L961.367 374.216C962.057 375.818 963.804 377.182 966.932 377.182ZM966.907 369.69C964.631 369.69 963.446 367.943 963.446 365.369C963.446 362.855 964.605 360.903 966.907 360.903C969.131 360.903 970.324 362.719 970.324 365.369C970.324 368.071 969.105 369.69 966.907 369.69Z" fill="#5452F6"/>
<rect x="837.5" y="324.5" width="182" height="78" rx="7.5" stroke="#5452F6"/>
<rect x="854.5" y="446.5" width="149" height="78" rx="7.5" fill="#EEEEFF"/>
<path d="M910.859 481.131H913.399C913.322 478.335 910.851 476.307 907.305 476.307C903.803 476.307 901.118 478.31 901.118 481.318C901.118 483.747 902.857 485.17 905.661 485.929L907.723 486.491C909.589 486.986 911.03 487.599 911.03 489.151C911.03 490.855 909.402 491.98 907.161 491.98C905.132 491.98 903.445 491.077 903.291 489.176H900.649C900.82 492.338 903.266 494.29 907.178 494.29C911.277 494.29 913.638 492.134 913.638 489.176C913.638 486.031 910.834 484.812 908.618 484.267L906.913 483.824C905.55 483.474 903.734 482.835 903.743 481.165C903.743 479.682 905.098 478.582 907.246 478.582C909.249 478.582 910.672 479.52 910.859 481.131ZM919.129 486.227C919.129 484.139 920.45 482.946 922.265 482.946C924.021 482.946 925.069 484.062 925.069 485.98V494H927.617V485.673C927.617 482.409 925.827 480.739 923.134 480.739C921.097 480.739 919.87 481.625 919.256 483.04H919.094V476.545H916.58V494H919.129V486.227ZM936.532 494.264C940.222 494.264 942.634 491.562 942.634 487.514C942.634 483.44 940.222 480.739 936.532 480.739C932.842 480.739 930.43 483.44 930.43 487.514C930.43 491.562 932.842 494.264 936.532 494.264ZM936.54 492.125C934.129 492.125 933.004 490.02 933.004 487.506C933.004 485 934.129 482.869 936.54 482.869C938.935 482.869 940.06 485 940.06 487.506C940.06 490.02 938.935 492.125 936.54 492.125ZM945.479 498.909H948.027V491.963H948.18C948.641 492.798 949.578 494.256 951.964 494.256C955.135 494.256 957.436 491.716 957.436 487.48C957.436 483.236 955.101 480.739 951.939 480.739C949.51 480.739 948.632 482.222 948.18 483.031H947.967V480.909H945.479V498.909ZM947.976 487.455C947.976 484.719 949.169 482.903 951.393 482.903C953.703 482.903 954.862 484.855 954.862 487.455C954.862 490.08 953.669 492.082 951.393 492.082C949.203 492.082 947.976 490.207 947.976 487.455Z" fill="#5452F6"/>
<rect x="854.5" y="446.5" width="149" height="78" rx="7.5" stroke="#5452F6"/>
<rect x="816.5" y="582.5" width="224" height="78" rx="7.5" fill="#EEEEFF"/>
<path d="M863.164 630H869.854C873.911 630 875.743 627.98 875.743 625.304C875.743 622.602 873.851 621.077 872.121 620.983V620.812C873.723 620.403 875.061 619.312 875.061 617.131C875.061 614.548 873.272 612.545 869.556 612.545H863.164V630ZM865.797 627.741V622.151H869.692C871.806 622.151 873.127 623.514 873.127 625.176C873.127 626.642 872.13 627.741 869.598 627.741H865.797ZM865.797 620.097V614.787H869.394C871.482 614.787 872.479 615.886 872.479 617.335C872.479 619.023 871.098 620.097 869.326 620.097H865.797ZM878.662 630H881.211V616.909H878.662V630ZM879.949 614.889C880.827 614.889 881.56 614.207 881.56 613.372C881.56 612.537 880.827 611.847 879.949 611.847C879.063 611.847 878.338 612.537 878.338 613.372C878.338 614.207 879.063 614.889 879.949 614.889ZM887.187 622.227C887.187 620.139 888.466 618.946 890.238 618.946C891.968 618.946 893.017 620.08 893.017 621.98V630H895.565V621.673C895.565 618.435 893.784 616.739 891.108 616.739C889.139 616.739 887.852 617.651 887.247 619.04H887.085V616.909H884.639V630H887.187V622.227ZM905.63 611.727H903.355L897.73 632.625H900.005L905.63 611.727ZM922.497 618.222C921.9 614.489 918.977 612.307 915.287 612.307C910.77 612.307 907.437 615.69 907.437 621.273C907.437 626.855 910.752 630.239 915.287 630.239C919.122 630.239 921.926 627.835 922.497 624.384L919.838 624.375C919.386 626.608 917.511 627.835 915.304 627.835C912.312 627.835 910.054 625.543 910.054 621.273C910.054 617.037 912.304 614.71 915.312 614.71C917.537 614.71 919.403 615.963 919.838 618.222H922.497ZM929.253 630.29C931.418 630.29 932.637 629.19 933.123 628.21H933.225V630H935.713V621.307C935.713 617.497 932.713 616.739 930.634 616.739C928.265 616.739 926.083 617.693 925.23 620.08L927.625 620.625C928 619.696 928.955 618.801 930.668 618.801C932.313 618.801 933.157 619.662 933.157 621.145V621.205C933.157 622.134 932.202 622.116 929.85 622.389C927.37 622.679 924.83 623.327 924.83 626.301C924.83 628.875 926.765 630.29 929.253 630.29ZM929.807 628.244C928.367 628.244 927.327 627.597 927.327 626.335C927.327 624.972 928.537 624.486 930.012 624.29C930.838 624.179 932.799 623.957 933.165 623.591V625.278C933.165 626.83 931.929 628.244 929.807 628.244ZM939.312 630H941.801V627.963H942.014C942.474 628.798 943.412 630.256 945.798 630.256C948.968 630.256 951.27 627.716 951.27 623.48C951.27 619.236 948.934 616.739 945.772 616.739C943.343 616.739 942.466 618.222 942.014 619.031H941.86V612.545H939.312V630ZM941.809 623.455C941.809 620.719 943.002 618.903 945.227 618.903C947.537 618.903 948.696 620.855 948.696 623.455C948.696 626.08 947.502 628.082 945.227 628.082C943.037 628.082 941.809 626.207 941.809 623.455ZM954.131 630H956.679V616.909H954.131V630ZM955.418 614.889C956.296 614.889 957.029 614.207 957.029 613.372C957.029 612.537 956.296 611.847 955.418 611.847C954.532 611.847 953.807 612.537 953.807 613.372C953.807 614.207 954.532 614.889 955.418 614.889ZM962.656 622.227C962.656 620.139 963.934 618.946 965.707 618.946C967.437 618.946 968.485 620.08 968.485 621.98V630H971.034V621.673C971.034 618.435 969.252 616.739 966.576 616.739C964.608 616.739 963.321 617.651 962.716 619.04H962.554V616.909H960.108V630H962.656V622.227ZM980.093 630.264C982.949 630.264 984.968 628.858 985.548 626.727L983.136 626.293C982.676 627.528 981.568 628.159 980.119 628.159C977.937 628.159 976.471 626.744 976.403 624.222H985.71V623.318C985.71 618.588 982.88 616.739 979.914 616.739C976.267 616.739 973.863 619.517 973.863 623.54C973.863 627.605 976.233 630.264 980.093 630.264ZM976.412 622.312C976.514 620.455 977.86 618.844 979.931 618.844C981.909 618.844 983.204 620.31 983.213 622.312H976.412ZM994.648 616.909H991.963V613.773H989.415V616.909H987.498V618.955H989.415V626.685C989.407 629.062 991.222 630.213 993.233 630.17C994.043 630.162 994.588 630.009 994.887 629.898L994.426 627.793C994.256 627.827 993.941 627.903 993.532 627.903C992.705 627.903 991.963 627.631 991.963 626.156V618.955H994.648V616.909Z" fill="#5452F6"/>
<rect x="816.5" y="582.5" width="224" height="78" rx="7.5" stroke="#5452F6"/>
<rect x="478.5" y="30.5" width="202" height="78" rx="7.5" fill="#EEEEFF"/>
<path d="M539.641 66.2216C539.045 62.4886 536.121 60.3068 532.431 60.3068C527.914 60.3068 524.582 63.6903 524.582 69.2727C524.582 74.8551 527.897 78.2386 532.431 78.2386C536.266 78.2386 539.07 75.8352 539.641 72.3835L536.982 72.375C536.531 74.608 534.656 75.8352 532.448 75.8352C529.457 75.8352 527.198 73.5426 527.198 69.2727C527.198 65.0369 529.448 62.7102 532.457 62.7102C534.681 62.7102 536.548 63.9631 536.982 66.2216H539.641ZM550.881 72.571C550.889 74.7955 549.236 75.8523 547.804 75.8523C546.227 75.8523 545.136 74.7102 545.136 72.929V64.9091H542.588V73.2358C542.588 76.483 544.369 78.1705 546.884 78.1705C548.852 78.1705 550.19 77.1307 550.795 75.733H550.932V78H553.438V64.9091H550.881V72.571ZM566.671 68.1051C566.143 66.0682 564.549 64.7386 561.719 64.7386C558.762 64.7386 556.665 66.2983 556.665 68.6165C556.665 70.4744 557.79 71.7102 560.245 72.2557L562.461 72.7415C563.722 73.0227 564.31 73.5852 564.31 74.4034C564.31 75.4176 563.228 76.2102 561.558 76.2102C560.032 76.2102 559.052 75.554 558.745 74.267L556.282 74.642C556.708 76.9602 558.634 78.2642 561.575 78.2642C564.737 78.2642 566.927 76.5852 566.927 74.2159C566.927 72.3665 565.751 71.2244 563.347 70.6705L561.268 70.1932C559.827 69.8523 559.205 69.3665 559.214 68.4801C559.205 67.4744 560.296 66.7585 561.745 66.7585C563.33 66.7585 564.063 67.6364 564.362 68.5142L566.671 68.1051ZM575.839 64.9091H573.155V61.7727H570.607V64.9091H568.689V66.9545H570.607V74.6847C570.598 77.0625 572.413 78.2131 574.425 78.1705C575.234 78.1619 575.78 78.0085 576.078 77.8977L575.618 75.7926C575.447 75.8267 575.132 75.9034 574.723 75.9034C573.896 75.9034 573.155 75.6307 573.155 74.1562V66.9545H575.839V64.9091ZM584.032 78.2642C587.722 78.2642 590.134 75.5625 590.134 71.5142C590.134 67.4403 587.722 64.7386 584.032 64.7386C580.342 64.7386 577.93 67.4403 577.93 71.5142C577.93 75.5625 580.342 78.2642 584.032 78.2642ZM584.04 76.125C581.629 76.125 580.504 74.0199 580.504 71.5057C580.504 69 581.629 66.8693 584.04 66.8693C586.435 66.8693 587.56 69 587.56 71.5057C587.56 74.0199 586.435 76.125 584.04 76.125ZM592.979 78H595.527V69.929C595.527 68.1648 596.763 66.9375 598.212 66.9375C599.626 66.9375 600.607 67.875 600.607 69.2983V78H603.146V69.6562C603.146 68.0795 604.109 66.9375 605.771 66.9375C607.118 66.9375 608.226 67.6875 608.226 69.4602V78H610.774V69.2216C610.774 66.2301 609.104 64.7386 606.734 64.7386C604.851 64.7386 603.436 65.642 602.805 67.0398H602.669C602.098 65.608 600.896 64.7386 599.149 64.7386C597.419 64.7386 596.132 65.5994 595.587 67.0398H595.425V64.9091H592.979V78ZM619.832 78.2642C622.687 78.2642 624.707 76.858 625.286 74.7273L622.874 74.2926C622.414 75.5284 621.306 76.1591 619.857 76.1591C617.675 76.1591 616.21 74.7443 616.141 72.2216H625.448V71.3182C625.448 66.5881 622.619 64.7386 619.653 64.7386C616.005 64.7386 613.602 67.517 613.602 71.5398C613.602 75.6051 615.971 78.2642 619.832 78.2642ZM616.15 70.3125C616.252 68.4545 617.599 66.8438 619.67 66.8438C621.647 66.8438 622.942 68.3097 622.951 70.3125H616.15ZM628.276 78H630.824V70.0057C630.824 68.2926 632.145 67.0568 633.952 67.0568C634.48 67.0568 635.077 67.1506 635.281 67.2102V64.7727C635.026 64.7386 634.523 64.7131 634.199 64.7131C632.665 64.7131 631.352 65.5824 630.875 66.9886H630.739V64.9091H628.276V78Z" fill="#5452F6"/>
<rect x="478.5" y="30.5" width="202" height="78" rx="7.5" stroke="#5452F6"/>
<line x1="348" y1="70.5" x2="456" y2="70.5" stroke="#FF5A43" stroke-width="2"/>
<path d="M446 61L456.5 70.5L446 79.5" stroke="#FF5A43" stroke-width="2" stroke-linecap="round" stroke-linejoin="round"/>
<circle cx="343.5" cy="71" r="5.5" stroke="#FF5A43" stroke-width="2"/>
<line x1="579.5" y1="133" x2="579.5" y2="188" stroke="#FF5A43" stroke-width="2"/>
<path d="M589 178L579.5 188.5L570.5 178" stroke="#FF5A43" stroke-width="2" stroke-linecap="round" stroke-linejoin="round"/>
<circle cx="579" cy="128.5" r="5.5" transform="rotate(90 579 128.5)" stroke="#FF5A43" stroke-width="2"/>
<line x1="725" y1="242.5" x2="820" y2="242.5" stroke="#5452F6" stroke-width="2"/>
<path d="M810 233L820.5 242.5L810 251.5" stroke="#5452F6" stroke-width="2" stroke-linecap="round" stroke-linejoin="round"/>
<circle cx="720.5" cy="243" r="5.5" stroke="#5452F6" stroke-width="2"/>
<path d="M111 64L76 64C53.9086 64 36 81.9086 36 104L36 276.5" stroke="#FF5A43" stroke-width="2" stroke-linecap="round" stroke-linejoin="round"/>
<path d="M84 235.5L56.4752 235.5C45.4295 235.5 36.4752 244.454 36.4752 255.5L36.4752 332.5C36.4752 343.546 45.4295 352.5 56.4752 352.5L84 352.5" stroke="#FF5A43" stroke-width="2"/>
<path d="M74 362.026L84 352.769L74 344" stroke="#FF5A43" stroke-width="2" stroke-linecap="round" stroke-linejoin="round"/>
<path d="M74 245.026L84 235.769L74 227" stroke="#FF5A43" stroke-width="2" stroke-linecap="round" stroke-linejoin="round"/>
</g>
<defs>
<clipPath id="clip0">
<rect width="1068" height="694" fill="white"/>
</clipPath>
</defs>
</svg>
